<?xml version="1.0" encoding="utf-8"?>
<!-- Generator: Adobe Illustrator 17.1.0, SVG Export Plug-In . SVG Version: 6.00 Build 0)  -->
<!DOCTYPE svg PUBLIC "-//W3C//DTD SVG 1.1//EN" "http://www.w3.org/Graphics/SVG/1.1/DTD/svg11.dtd">
<svg version="1.1" id="Layer_1" xmlns="http://www.w3.org/2000/svg" xmlns:xlink="http://www.w3.org/1999/xlink" x="0px" y="0px"
	 viewBox="0 0 100 100" enable-background="new 0 0 100 100" xml:space="preserve">
<g>
	
		<radialGradient id="SVGID_1_" cx="50.0378" cy="118.2237" r="94.8638" gradientTransform="matrix(1 0 0 1 0.14 -100.945)" gradientUnits="userSpaceOnUse">
		<stop  offset="0" style="stop-color:#289F2D"/>
		<stop  offset="1" style="stop-color:#145019"/>
	</radialGradient>
	<rect x="1" fill="url(#SVGID_1_)" width="99" height="99"/>
	<path fill="#0E1011" d="M99,1v98H1V1H99 M100,0H0v100h100V0L100,0z"/>
</g>
<g>
	<polygon fill="#E0C524" points="66,79 76,69 76,40 66,40 	"/>
	<polygon fill="#FFEB2E" points="66,50 26,50 36,40 76,40 	"/>
	<rect x="26" y="50" fill="#BCAA24" width="40" height="29"/>
	<path fill="#FFEB2E" d="M65.3,44l-2,2l-24.6-2c0-7.3,6-13.3,13.3-13.3C59.3,30.7,65.3,36.7,65.3,44z"/>
	<path fill="#BCAA24" d="M63.3,46H36.7c0-7.3,6-13.3,13.3-13.3C57.3,32.7,63.3,38.7,63.3,46z"/>
</g>
</svg>
