<?xml version="1.0" encoding="utf-8"?>
<!-- Generator: Adobe Illustrator 17.1.0, SVG Export Plug-In . SVG Version: 6.00 Build 0)  -->
<!DOCTYPE svg PUBLIC "-//W3C//DTD SVG 1.1//EN" "http://www.w3.org/Graphics/SVG/1.1/DTD/svg11.dtd">
<svg version="1.1" id="Layer_1" xmlns="http://www.w3.org/2000/svg" xmlns:xlink="http://www.w3.org/1999/xlink" x="0px" y="0px"
	 viewBox="0 0 100 100" enable-background="new 0 0 100 100" xml:space="preserve">
<g>
	
		<radialGradient id="SVGID_1_" cx="50.0378" cy="118.2237" r="94.8638" gradientTransform="matrix(1 0 0 1 0.14 -100.945)" gradientUnits="userSpaceOnUse">
		<stop  offset="0" style="stop-color:#289F2D"/>
		<stop  offset="1" style="stop-color:#145019"/>
	</radialGradient>
	<rect x="1" fill="url(#SVGID_1_)" width="99" height="99"/>
	<path fill="#0E1011" d="M99,1v98H1V1H99 M100,0H0v100h100V0L100,0z"/>
</g>
<g>
	<polygon fill="#2A6B2A" points="78,37 78,33 80,31 80,35 	"/>
	<polygon points="78,36 78,34 80,32 80,34 	"/>
	<polygon fill="#2A6B2A" points="60,80 70,70 70,5 60,5 	"/>
	<polygon fill="#1EAD1E" points="60,15 30,15 40,5 70,5 	"/>
	<rect x="30" y="15" fill="#143D14" width="30" height="65"/>
	<rect x="65" y="33" fill="#143D14" width="13" height="4"/>
	<polygon fill="#1EAD1E" points="78,33 65,33 67,31 80,31 	"/>
</g>
</svg>
