<?xml version="1.0" encoding="utf-8"?>
<!-- Generator: Adobe Illustrator 17.0.2, SVG Export Plug-In . SVG Version: 6.00 Build 0)  -->
<!DOCTYPE svg PUBLIC "-//W3C//DTD SVG 1.1//EN" "http://www.w3.org/Graphics/SVG/1.1/DTD/svg11.dtd">
<svg version="1.1" id="Layer_1" xmlns="http://www.w3.org/2000/svg" xmlns:xlink="http://www.w3.org/1999/xlink" x="0px" y="0px"
	 width="75px" height="50px" viewBox="0 0 75 50" enable-background="new 0 0 75 50" xml:space="preserve">
<rect x="18" y="35" fill="#1C1B1A" width="4" height="15"/>
<polygon fill="#3D4344" points="24,48 22,50 22,35 24,35 "/>
<rect x="42" y="25" fill="#1C1B1A" width="4" height="15"/>
<polygon fill="#3D4344" points="48,38 46,40 46,25 48,25 "/>
<rect x="49" y="35" fill="#1C1B1A" width="4" height="15"/>
<polygon fill="#3D4344" points="55,48 53,50 53,35 55,35 "/>
<rect x="59" y="25" fill="#1C1B1A" width="4" height="15"/>
<polygon fill="#3D4344" points="65,38 63,40 63,25 65,25 "/>
<rect x="28" y="25" fill="#1C1B1A" width="4" height="15"/>
<polygon fill="#3D4344" points="34,38 32,40 32,25 34,25 "/>
<rect x="33" y="35" fill="#1C1B1A" width="4" height="15"/>
<polygon fill="#3D4344" points="39,48 37,50 37,35 39,35 "/>
<polygon fill="#3D4344" points="62,35 75,21 75,0 62,0 "/>
<polygon fill="#5B6163" points="62,12 12,12 25,0 75,0 "/>
<polygon fill="#5B6163" points="18,19 0,19 7,13 25,13 "/>
<rect x="12" y="12" fill="#1C1B1A" width="50" height="23"/>
<rect y="19" fill="#1C1B1A" width="12" height="12"/>
<rect y="24" fill="#F9231E" width="6" height="5"/>
<rect x="4" y="21" fill="#F9231E" width="4" height="2"/>
</svg>
