<?xml version="1.0" encoding="utf-8"?>
<!-- Generator: Adobe Illustrator 17.0.2, SVG Export Plug-In . SVG Version: 6.00 Build 0)  -->
<!DOCTYPE svg PUBLIC "-//W3C//DTD SVG 1.1//EN" "http://www.w3.org/Graphics/SVG/1.1/DTD/svg11.dtd">
<svg version="1.1" id="Layer_1" xmlns="http://www.w3.org/2000/svg" xmlns:xlink="http://www.w3.org/1999/xlink" x="0px" y="0px"
	 width="75px" height="50px" viewBox="0 0 75 50" enable-background="new 0 0 75 50" xml:space="preserve">
<rect x="18" y="35" fill="#684233" width="4" height="15"/>
<polygon fill="#A34D2B" points="24,48 22,50 22,35 24,35 "/>
<rect x="49" y="35" fill="#684233" width="4" height="15"/>
<polygon fill="#A34D2B" points="55,48 53,50 53,35 55,35 "/>
<rect x="59" y="25" fill="#684233" width="4" height="15"/>
<polygon fill="#A34D2B" points="65,38 63,40 63,25 65,25 "/>
<rect x="28" y="25" fill="#684233" width="4" height="15"/>
<polygon fill="#A34D2B" points="34,38 32,40 32,25 34,25 "/>
<polygon fill="#A34D2B" points="62,35 75,21 75,0 62,0 "/>
<polygon fill="#E55217" points="62,12 12,12 25,0 75,0 "/>
<polygon fill="#E55217" points="18,19 0,19 7,13 25,13 "/>
<rect x="12" y="12" fill="#684233" width="50" height="23"/>
<rect y="19" fill="#684233" width="12" height="12"/>
<rect y="24" fill="#232120" width="6" height="5"/>
<rect x="4" y="21" fill="#232120" width="4" height="2"/>
</svg>
